<svg xmlns="http://www.w3.org/2000/svg" viewBox="0 0 133 40"><defs><style>.cls-1{fill:#ffba13;}.cls-2,.cls-4{fill:#fff;}.cls-3{fill:none;}.cls-4{opacity:0.8;}.cls-5{opacity:0.4;}.cls-6{fill:#d1d1d1;}</style></defs><g id="Logo"><path class="cls-1" d="M64,18.13a1.81,1.81,0,1,1-1.8-1.81A1.81,1.81,0,0,1,64,18.13Z"/><path class="cls-2" d="M55.61,15.07h2.47V35.21H55.61Z"/><path class="cls-2" d="M61,35.21V21.51h2.47v13.7Z"/><path class="cls-2" d="M51.54,31.86a7.56,7.56,0,1,1,0-13.46l1.11-2.17a10,10,0,1,0,0,17.8Z"/><path class="cls-2" d="M75.7,32.15a4.68,4.68,0,0,1-2.15.52,4.73,4.73,0,0,1,0-9.45,4.68,4.68,0,0,1,2.15.52l1.12-2.19a7.18,7.18,0,1,0,0,12.79Z"/><polygon class="cls-2" points="88.54 34.99 91.51 35 85.5 26.57 90.71 21.32 87.2 21.34 82.46 26.13 82.46 14.86 79.99 14.86 79.99 35 82.46 35 82.46 29.64 83.77 28.32 88.54 34.99"/><path class="cls-1" d="M103.38,24.92a5.53,5.53,0,0,0-3.59-9.57H93.33V35h7.07v0a5.53,5.53,0,0,0,3-10.06Zm-3.59-7.08a3,3,0,0,1,.26,6.05,3,3,0,0,1-.42,0H95.82V17.84Zm.61,14.65v0H95.82V26.42h4.43a2.83,2.83,0,0,1,.41,0,3,3,0,0,1-.26,6Z"/><path class="cls-1" d="M120.22,21.13h-2.47v8.36a3.31,3.31,0,0,1-6.61-.13h0V21.13h-2.46v8.23a5.77,5.77,0,0,0,11.49.68l0-.05Z"/><path class="cls-1" d="M128.21,26.73c-1.44-.71-2.32-1.19-2.32-2.19a1.64,1.64,0,0,1,1.81-1.64A3.31,3.31,0,0,1,130.23,24l.32.35,1.31-1.87-.22-.22a5.26,5.26,0,0,0-3.9-1.55,4,4,0,0,0-4.28,3.95c0,2.57,2,3.51,3.58,4.27l.1.05c1.49.72,2.46,1.28,2.46,2.51a1.83,1.83,0,0,1-2.09,1.85,3.8,3.8,0,0,1-2.87-1.38l-.31-.38L123,33.46l.2.23a5.64,5.64,0,0,0,4.34,1.81c3.32,0,4.5-2.23,4.5-4.15C132,28.56,129.9,27.54,128.21,26.73Z"/><path id="LOGO-2" data-name="LOGO" class="cls-1" d="M35.19,7.07a14.62,14.62,0,0,0-3.14-1.15C31.8,5,31.58,4.35,31.46,4c-.89-2.26-1.17-2.53-3.47-3A46.42,46.42,0,0,0,19.54.69a46.35,46.35,0,0,0-8.44.39c-2.3.43-2.58.7-3.47,3a18.57,18.57,0,0,0-.57,1.84,15.21,15.21,0,0,0-3.3,1.19c-.69.54-3.44,5.24-2.62,6.48s1.72,1.89,2.51,1.32S5.17,8.46,5.17,8.46l1.26,0a62.12,62.12,0,0,0-1.09,8c0,.19,0,.39,0,.59v0c0,.31,0,.63,0,1,0,.1,0,.2,0,.3v.32c0,.08,0,.15,0,.23s0,.36,0,.55A67.76,67.76,0,0,0,6,32.05a1.55,1.55,0,0,0,0,.21,2.91,2.91,0,0,0,.12.39,2.64,2.64,0,0,0,.2.37,3.43,3.43,0,0,0,.24.33h0a3.88,3.88,0,0,0,1.47,1,2.64,2.64,0,0,0,0,.29v2.3a2.45,2.45,0,0,0,4.89,0v-2H25.9v2a2.45,2.45,0,0,0,4.89,0v-2.3c0-.07,0-.14,0-.21a3.91,3.91,0,0,0,1.68-1l0,0a2,2,0,0,0,.24-.33,2.64,2.64,0,0,0,.2-.37,2.4,2.4,0,0,0,.12-.38,1.7,1.7,0,0,0,0-.22,68.43,68.43,0,0,0,.81-12.66c0-.19,0-.37,0-.55s0-.37,0-.55,0-.2,0-.3c0-.54-.06-1.07-.1-1.58A62.73,62.73,0,0,0,32.66,8.5l1.12,0s.77,5.77,1.52,6.41,1.72,0,2.5-1.32S35.87,7.61,35.19,7.07ZM16,2.46h7.41c.82,0,.74.43.74,1s.08,1-.74,1H16c-.81,0-.77-.43-.77-1S15.21,2.46,16,2.46ZM14,31.68c-.53.49-4-.24-5-.44s-1,0-1.32-.83c0,0,0-.07,0-.11a5.26,5.26,0,0,1,0-2.92.41.41,0,0,1,.39-.06c.14,0,.37.09.77.22C11.53,28.37,14.52,30.35,14,31.68ZM9.63,23.37a2.66,2.66,0,0,1-1.72-.74,3.91,3.91,0,0,1-.76-1.5c0-.1-.06-.2-.1-.31h0A2.37,2.37,0,0,1,7,20.17H7c0-.1,0-.21,0-.33H7c0-.44,0-1,.06-1.61a65.64,65.64,0,0,1,1.33-9c.48-1.57.67-2.12,2.58-2.56s15.82-.34,17.19.07a3.33,3.33,0,0,1,2.58,2.56A64.6,64.6,0,0,1,32,18.15c0,.6.07,1.15.08,1.6,0,.12,0,.22,0,.32a.91.91,0,0,1,0,.17,2.68,2.68,0,0,1,0,.45.74.74,0,0,1-.05.19,3.19,3.19,0,0,1-.11.33,4.23,4.23,0,0,1-.81,1.42,2.61,2.61,0,0,1-1.65.82C28,23.61,11.43,23.61,9.63,23.37ZM25.1,31.68c-.51-1.33,2.48-3.31,5.16-4.14l.64-.19c.35-.09.37-.05.52,0a5.24,5.24,0,0,1,0,3,1,1,0,0,1-.07.15h0c-.28.62-.28.5-1.25.68S25.62,32.17,25.1,31.68Z"/><path class="cls-3" d="M7.7,20a.75.75,0,0,0-.12.39v0A.75.75,0,0,1,7.7,20a.83.83,0,0,1,.2-.22h0A.83.83,0,0,0,7.7,20Z"/><path class="cls-3" d="M30.92,19.71l.07,0,.06,0-.06,0Z"/><path class="cls-2" d="M30.92,19.71l.07,0,.06,0a.6.6,0,0,1,.21.21.74.74,0,0,1,.11.39v.08h0l.72-.72L33.84,18c0-.54-.06-1.07-.1-1.58L32,18.15,30.54,19.6l.21.06.07,0Z"/><path class="cls-2" d="M7.59,20.46v-.07A.75.75,0,0,1,7.7,20a.83.83,0,0,1,.2-.22h0l0,0a.51.51,0,0,1,.17-.07l.16-.05.1,0L5.34,16.55c0,.19,0,.39,0,.59v0c0,.31,0,.63,0,1L7,19.83H7l.65.65h0Z"/><path class="cls-2" d="M31.37,20.41v0a.74.74,0,0,0-.11-.39.6.6,0,0,0-.21-.21.6.6,0,0,1,.21.21.74.74,0,0,1,.11.39v.08h0Z"/><path class="cls-2" d="M30.92,19.71l-.1,0-.07,0,.07,0Z"/><polygon class="cls-2" points="7.59 20.46 7.6 20.48 7.6 20.48 7.6 20.48 7.59 20.46"/><path class="cls-2" d="M8,19.75l0,0,0,0a.44.44,0,0,1,.17-.07l.16-.05-.16.05A.51.51,0,0,0,8,19.75Z"/><path class="cls-2" d="M8.5,31.49,6.62,33.36h0A3.43,3.43,0,0,1,6.37,33a2.64,2.64,0,0,1-.2-.37,2.91,2.91,0,0,1-.12-.39l1.54-1.54a.68.68,0,0,0,0,.14.73.73,0,0,0,.19.33.76.76,0,0,0,.32.2h0Z"/><path class="cls-2" d="M33,32.27a2.4,2.4,0,0,1-.12.38,2.64,2.64,0,0,1-.2.37,2,2,0,0,1-.24.33l0,0-1.91-1.91.27-.07.11,0a.73.73,0,0,0,.29-.23.85.85,0,0,0,.15-.37v-.16Z"/><path class="cls-4" d="M31.36,30.59l-.44-3.05a14.18,14.18,0,0,1,0-4l.44-3.06h0v-.08a.74.74,0,0,0-.11-.39.6.6,0,0,0-.21-.21l-.06,0-.07,0-.1,0-.07,0-.21-.06-8.9-2.34a8.33,8.33,0,0,0-4.32,0L8.4,19.61l-.1,0-.16.05a.44.44,0,0,0-.17.07l0,0h0a.83.83,0,0,0-.2.22.75.75,0,0,0-.12.39v.09h0l.06.43L8,23.53a14.18,14.18,0,0,1,0,4l-.46,3.13a.43.43,0,0,0,0,0,.68.68,0,0,0,0,.14.73.73,0,0,0,.19.33.65.65,0,0,0,.32.19h0l.36.1,8.82,2.32a8.55,8.55,0,0,0,4.32,0l8.91-2.35.27-.07.11,0a.66.66,0,0,0,.29-.23.85.85,0,0,0,.15-.37v-.16Z"/><path class="cls-4" d="M19.49,32.9a7.22,7.22,0,0,1-1.85-.24L9.22,30.44a.76.76,0,0,1-.57-.74l.29-1.83a14.7,14.7,0,0,0,0-4.68l-.29-1.82a.77.77,0,0,1,.57-.75l8.42-2.22a7.22,7.22,0,0,1,1.85-.24,7.3,7.3,0,0,1,1.86.24l8.41,2.22a.78.78,0,0,1,.58.75L30,23.19a14.7,14.7,0,0,0,0,4.68l.3,1.83a.77.77,0,0,1-.58.74l-8.41,2.22A7.3,7.3,0,0,1,19.49,32.9Z"/><g class="cls-5"><path class="cls-6" d="M27.84,23.47a.44.44,0,0,1-.16,0l-6.83-1.8a5.41,5.41,0,0,0-2.71,0l-6.84,1.8a.58.58,0,0,1-.72-.42A.59.59,0,0,1,11,22.3l6.83-1.8a6.67,6.67,0,0,1,3.32,0L28,22.3a.61.61,0,0,1,.42.73A.59.59,0,0,1,27.84,23.47Z"/></g><g class="cls-5"><path class="cls-6" d="M24.83,25.74l-.15,0-4.37-1.16a3.22,3.22,0,0,0-1.63,0l-4.37,1.16A.6.6,0,0,1,14,24.57l4.38-1.15a4.22,4.22,0,0,1,2.23,0L25,24.57a.58.58,0,0,1,.42.72A.59.59,0,0,1,24.83,25.74Z"/></g></g></svg>